<?xml version="1.0" standalone="no"?>
<!DOCTYPE svg PUBLIC "-//W3C//DTD SVG 20010904//EN"
 "http://www.w3.org/TR/2001/REC-SVG-20010904/DTD/svg10.dtd">
<svg version="1.0" xmlns="http://www.w3.org/2000/svg"
 width="1920.000000pt" height="1920.000000pt" viewBox="0 0 1920.000000 1920.000000"
 preserveAspectRatio="xMidYMid meet">

<g transform="translate(0.000000,1920.000000) scale(0.100000,-0.100000)"
fill="#000000" stroke="none">
<path d="M8885 18850 c-88 -4 -180 -12 -205 -18 -25 -6 -97 -15 -161 -21 -64
-5 -157 -17 -205 -25 -49 -9 -129 -22 -179 -30 -273 -44 -364 -60 -420 -75
-60 -16 -164 -41 -220 -53 -27 -6 -117 -29 -200 -50 -82 -22 -175 -45 -205
-53 -30 -8 -75 -21 -100 -29 -25 -8 -126 -41 -225 -72 -99 -31 -198 -65 -221
-75 -22 -11 -48 -19 -58 -19 -9 0 -31 -7 -48 -16 -17 -9 -54 -24 -82 -34 -145
-52 -171 -63 -190 -76 -11 -8 -27 -14 -36 -14 -8 0 -37 -11 -65 -25 -27 -13
-54 -25 -59 -25 -5 0 -30 -9 -55 -21 -25 -12 -71 -32 -101 -46 -30 -14 -77
-35 -105 -48 -85 -39 -297 -143 -365 -179 -36 -19 -81 -42 -100 -51 -41 -18
-108 -55 -165 -90 -22 -13 -58 -34 -80 -45 -22 -12 -60 -34 -85 -50 -25 -16
-55 -34 -67 -39 -22 -10 -47 -25 -178 -109 -38 -25 -86 -55 -105 -67 -37 -23
-208 -135 -225 -147 -5 -4 -23 -18 -40 -31 -16 -12 -43 -32 -59 -42 -16 -11
-41 -29 -56 -40 -15 -11 -54 -38 -86 -60 -32 -22 -86 -62 -120 -90 -34 -27
-74 -59 -90 -70 -65 -47 -375 -305 -493 -410 -200 -179 -557 -536 -736 -736
-37 -42 -246 -287 -272 -319 -6 -8 -46 -58 -87 -110 -41 -52 -95 -120 -119
-150 -24 -30 -63 -82 -86 -115 -23 -33 -66 -94 -96 -135 -55 -77 -191 -278
-230 -340 -12 -19 -42 -66 -67 -105 -63 -98 -92 -146 -106 -175 -7 -14 -26
-45 -42 -70 -16 -25 -38 -63 -50 -85 -11 -22 -32 -58 -45 -80 -36 -59 -72
-125 -90 -165 -8 -19 -21 -44 -27 -55 -7 -11 -31 -58 -55 -105 -24 -47 -48
-92 -53 -100 -5 -8 -23 -46 -40 -85 -18 -38 -42 -92 -55 -120 -13 -27 -34 -75
-48 -105 -14 -30 -34 -76 -46 -101 -12 -25 -21 -50 -21 -55 0 -5 -12 -31 -25
-59 -14 -27 -25 -57 -25 -65 0 -9 -6 -25 -14 -36 -13 -19 -24 -45 -76 -190
-10 -28 -25 -65 -34 -82 -9 -17 -16 -39 -16 -49 0 -10 -9 -36 -19 -57 -11 -21
-23 -52 -27 -69 -3 -18 -14 -52 -24 -77 -10 -25 -32 -92 -49 -150 -18 -58 -38
-125 -47 -150 -8 -25 -21 -70 -29 -100 -8 -30 -28 -104 -45 -165 -16 -60 -37
-146 -45 -190 -8 -44 -21 -96 -29 -115 -7 -19 -17 -55 -20 -80 -4 -25 -15 -79
-26 -120 -10 -41 -26 -120 -34 -175 -20 -129 -42 -268 -62 -378 -8 -49 -19
-138 -25 -199 -5 -61 -16 -149 -25 -197 -13 -71 -17 -203 -21 -756 -5 -652 5
-1080 26 -1170 5 -22 15 -96 21 -165 6 -69 17 -152 25 -185 7 -33 16 -91 20
-130 4 -38 15 -108 25 -155 10 -47 23 -124 29 -172 7 -48 18 -104 25 -125 7
-21 16 -60 21 -88 4 -27 15 -77 25 -110 10 -33 22 -82 28 -110 13 -67 47 -203
73 -290 11 -38 29 -99 40 -135 10 -36 25 -87 34 -115 9 -27 27 -84 40 -125 13
-41 31 -97 40 -125 33 -98 101 -283 125 -340 10 -22 23 -58 30 -80 7 -22 19
-49 26 -60 8 -11 14 -26 14 -35 0 -8 8 -31 19 -50 10 -19 22 -46 26 -60 8 -28
57 -136 86 -191 10 -20 19 -43 19 -50 0 -8 9 -25 20 -39 11 -14 20 -30 20 -37
0 -7 17 -47 39 -90 21 -43 46 -94 55 -113 10 -19 21 -42 26 -50 5 -8 39 -73
75 -145 37 -71 91 -170 120 -220 30 -49 63 -108 75 -130 11 -22 32 -58 45 -80
13 -22 34 -56 45 -75 53 -89 67 -110 83 -128 9 -10 17 -22 17 -26 0 -4 11 -22
25 -40 14 -18 25 -38 25 -43 0 -6 7 -17 17 -24 9 -8 22 -27 30 -44 8 -16 27
-48 44 -70 16 -22 50 -70 75 -107 26 -37 53 -73 60 -79 8 -6 14 -16 14 -21 0
-6 10 -23 22 -38 13 -16 34 -45 48 -65 14 -20 46 -62 71 -93 25 -31 70 -88 99
-127 49 -64 285 -348 320 -386 8 -9 47 -51 85 -94 66 -74 274 -294 340 -360
92 -91 290 -279 355 -335 40 -36 85 -75 98 -88 38 -37 276 -235 339 -283 32
-24 85 -66 118 -92 33 -26 69 -55 80 -63 51 -38 97 -71 130 -94 20 -14 51 -36
70 -50 88 -64 231 -163 276 -190 58 -35 199 -125 229 -147 13 -10 36 -24 50
-31 14 -6 45 -25 70 -42 25 -16 63 -38 85 -49 22 -12 58 -32 80 -46 22 -13 58
-34 80 -45 22 -12 63 -34 90 -50 28 -16 113 -61 190 -100 77 -39 147 -75 155
-80 8 -5 47 -23 85 -41 39 -17 88 -39 110 -49 84 -38 161 -73 200 -91 86 -39
158 -69 168 -69 5 0 28 -9 51 -20 23 -11 84 -35 136 -55 52 -19 109 -42 125
-50 17 -8 46 -18 65 -21 19 -4 45 -12 56 -20 12 -7 45 -20 75 -28 73 -21 174
-54 229 -76 25 -10 65 -21 90 -25 25 -4 54 -13 65 -19 11 -7 38 -16 60 -20 22
-4 67 -16 100 -27 75 -24 208 -57 300 -75 39 -7 90 -20 114 -28 24 -9 53 -16
65 -16 12 0 46 -7 76 -15 30 -9 109 -24 175 -35 66 -10 156 -26 200 -34 125
-23 282 -47 380 -57 50 -5 133 -16 185 -24 52 -9 145 -20 205 -25 61 -6 160
-18 220 -27 159 -24 980 -24 1135 0 58 9 159 21 225 27 66 6 156 17 200 25 44
7 118 16 165 20 47 3 114 13 150 20 36 8 108 19 160 25 52 6 113 16 135 22 22
6 92 18 155 28 111 17 180 32 368 80 20 5 111 27 202 50 215 53 296 75 345 94
22 8 50 15 63 16 13 0 35 6 50 14 15 7 59 23 97 34 106 32 166 52 205 69 19 8
55 21 80 28 25 7 81 27 125 45 44 18 98 39 120 47 22 8 58 23 81 34 22 10 47
19 55 19 8 0 23 6 34 14 11 7 31 17 45 21 23 7 88 35 205 90 28 13 77 35 110
50 73 34 256 124 345 171 36 18 76 38 90 44 14 6 43 21 65 34 22 13 59 34 81
47 23 13 81 47 129 74 49 28 104 59 124 70 20 11 50 29 66 39 17 11 46 29 65
41 43 27 165 105 204 131 16 10 36 24 45 29 43 28 135 91 216 150 84 60 108
78 192 137 17 13 54 41 82 63 28 22 82 64 119 93 37 29 73 57 81 64 7 6 34 26
60 46 25 19 51 40 56 46 6 7 57 52 115 100 58 49 112 95 120 102 271 248 536
513 784 784 7 8 53 62 102 120 48 58 93 110 100 115 6 6 27 31 46 56 20 26 40
53 47 60 6 8 36 46 66 84 30 39 64 81 76 95 11 14 45 59 75 100 29 41 59 82
67 90 7 8 31 42 52 75 22 33 42 62 45 65 3 3 13 16 22 30 10 14 35 51 58 84
22 32 40 62 40 66 0 4 7 13 16 21 9 7 23 27 32 45 9 18 35 58 56 91 21 32 50
76 64 98 14 22 34 52 44 67 10 15 23 38 29 50 6 13 23 46 39 73 16 28 41 70
55 95 14 25 37 63 50 85 24 39 54 95 78 144 7 13 29 56 49 95 21 39 45 87 53
106 9 19 20 42 25 50 10 16 57 113 95 195 62 136 89 194 111 240 13 28 24 57
24 65 0 8 9 29 20 45 11 17 20 36 20 44 0 8 9 33 19 55 11 23 34 79 51 126 18
47 43 110 56 141 13 31 24 64 24 73 0 9 8 33 19 54 10 20 21 51 25 67 4 17 15
53 26 80 10 28 30 88 44 135 14 47 32 108 41 135 23 69 48 162 95 355 23 91
50 194 60 230 10 36 21 87 25 113 3 26 12 62 20 80 7 18 16 61 20 97 3 36 15
109 26 164 11 54 24 135 30 180 5 44 16 113 24 151 7 39 17 108 20 155 4 47
13 121 20 165 8 44 19 134 25 200 6 66 18 167 27 225 24 151 24 986 0 1135 -9
55 -21 159 -27 230 -6 72 -16 146 -21 165 -5 19 -14 89 -19 155 -6 66 -17 154
-25 195 -8 41 -19 116 -26 165 -6 50 -17 115 -24 145 -7 30 -19 96 -25 145 -6
50 -20 119 -31 154 -10 35 -19 73 -19 85 0 11 -8 50 -19 86 -11 36 -26 97 -35
135 -30 139 -54 236 -69 273 -8 20 -18 57 -22 82 -4 25 -13 56 -20 70 -7 14
-16 44 -20 65 -4 22 -15 60 -25 85 -22 55 -56 157 -76 229 -8 30 -21 63 -28
75 -8 11 -16 37 -20 56 -4 19 -15 53 -25 75 -10 22 -30 74 -45 115 -16 41 -39
98 -52 126 -13 28 -24 56 -24 61 0 13 -29 80 -114 268 -37 80 -62 135 -95 210
-18 39 -38 81 -46 95 -8 14 -44 84 -81 155 -36 72 -78 153 -94 180 -16 28 -38
68 -50 90 -11 22 -32 58 -45 80 -14 22 -34 58 -46 80 -11 22 -33 60 -49 85
-17 25 -37 59 -45 75 -8 17 -23 41 -34 55 -17 23 -86 130 -136 210 -30 48 -95
145 -123 184 -12 17 -33 47 -47 66 -14 19 -35 49 -47 66 -13 18 -41 58 -63 90
-22 32 -71 97 -110 145 -38 48 -99 125 -135 171 -79 101 -197 239 -360 422
-178 199 -452 472 -675 671 -43 39 -86 77 -95 86 -39 37 -332 280 -404 335
-43 32 -105 81 -139 107 -58 45 -118 89 -156 112 -9 6 -41 28 -71 50 -30 22
-66 48 -80 58 -14 9 -43 30 -65 46 -22 17 -50 35 -61 40 -12 5 -52 30 -89 55
-36 25 -70 46 -74 46 -5 0 -14 7 -22 16 -7 8 -29 24 -48 35 -20 11 -56 33 -81
49 -25 16 -58 36 -75 45 -16 9 -51 28 -76 43 -187 109 -464 260 -519 282 -14
5 -36 17 -50 25 -14 9 -43 24 -65 34 -81 37 -201 92 -240 110 -22 11 -78 36
-125 56 -47 20 -103 45 -126 56 -23 10 -48 19 -55 19 -8 0 -23 6 -34 14 -11 7
-38 19 -60 26 -22 7 -58 20 -80 30 -57 24 -242 92 -340 125 -27 9 -84 27 -125
39 -41 12 -84 27 -95 33 -11 6 -43 16 -70 21 -28 6 -70 17 -95 25 -117 39
-303 89 -405 109 -27 6 -79 19 -115 29 -36 10 -87 23 -115 28 -27 5 -79 16
-115 24 -61 15 -124 26 -357 62 -54 9 -134 22 -179 31 -44 8 -131 19 -193 24
-62 6 -152 17 -200 26 -73 14 -199 17 -821 19 -404 2 -807 -1 -895 -5z m-2605
-3965 c69 -7 138 -18 155 -25 16 -6 57 -17 90 -25 62 -14 163 -53 187 -72 7
-6 30 -18 51 -27 22 -9 62 -34 90 -56 29 -21 71 -54 95 -72 24 -18 80 -78 125
-133 93 -113 169 -256 212 -397 27 -88 55 -266 55 -350 0 -81 -29 -272 -51
-334 -11 -32 -24 -76 -28 -97 -5 -21 -15 -45 -24 -55 -8 -9 -22 -33 -31 -52
-89 -188 -292 -388 -486 -475 -19 -9 -51 -24 -70 -34 -138 -74 -477 -126 -704
-108 -149 11 -428 78 -465 111 -9 8 -32 21 -51 30 -133 63 -250 157 -358 289
-81 100 -108 140 -129 197 -8 19 -18 37 -24 40 -20 13 -78 237 -94 363 -15
120 -15 138 1 265 19 155 56 287 105 380 19 34 43 80 54 100 36 69 147 196
225 258 30 24 62 50 70 57 64 54 273 155 360 173 37 7 82 20 101 28 19 7 79
17 134 21 55 4 120 11 145 15 25 5 65 6 90 3 25 -3 101 -11 170 -18z m6840
-3098 c36 -8 101 -20 145 -27 44 -6 105 -20 135 -31 30 -10 63 -19 75 -19 11
0 43 -11 70 -25 28 -13 59 -25 70 -25 11 0 43 -11 70 -25 28 -13 56 -25 62
-25 7 0 37 -12 65 -27 71 -36 87 -44 130 -65 20 -10 40 -22 43 -28 4 -6 21
-17 38 -26 55 -26 94 -50 128 -77 19 -15 43 -34 54 -42 76 -57 112 -88 204
-178 103 -102 261 -285 290 -338 14 -24 59 -93 111 -169 9 -14 22 -42 29 -62
7 -20 18 -41 26 -48 7 -6 16 -23 20 -37 3 -15 15 -39 26 -54 10 -15 19 -34 19
-42 0 -8 11 -35 25 -61 14 -26 25 -52 25 -59 0 -7 11 -34 25 -62 13 -27 25
-56 25 -63 0 -7 11 -45 25 -84 14 -39 25 -83 25 -97 0 -14 9 -45 20 -68 10
-24 24 -77 29 -118 6 -42 16 -85 21 -95 12 -22 55 -334 70 -505 15 -184 14
-4237 -2 -4253 -9 -9 -268 -12 -1105 -12 -1070 0 -1093 0 -1103 19 -7 13 -10
598 -10 1820 0 1136 -4 1838 -10 1903 -6 57 -15 153 -20 213 -11 118 -40 262
-71 360 -11 33 -24 79 -29 101 -5 23 -24 68 -41 100 -18 33 -42 77 -53 99 -38
73 -73 119 -147 196 -68 69 -98 94 -150 125 -10 6 -27 18 -36 26 -23 20 -156
78 -178 78 -10 0 -32 9 -49 19 -19 12 -60 21 -106 25 -41 4 -112 11 -157 17
-103 14 -359 -11 -425 -41 -24 -11 -51 -20 -62 -20 -10 0 -39 -11 -65 -24 -25
-13 -57 -29 -71 -36 -132 -60 -302 -205 -414 -355 -29 -38 -59 -81 -66 -95 -7
-14 -16 -27 -20 -30 -6 -4 -30 -53 -101 -206 -10 -22 -19 -55 -19 -72 0 -18
-10 -58 -22 -90 l-23 -57 -3 -2015 c-2 -1761 -5 -2018 -18 -2037 l-14 -23
-1095 0 c-927 0 -1096 2 -1108 14 -12 12 -13 492 -11 3351 2 1835 6 3340 9
3346 4 5 432 9 1109 9 910 0 1106 -2 1115 -13 7 -10 12 -146 13 -443 3 -502 1
-493 88 -345 9 14 23 35 32 46 9 11 52 63 95 116 75 92 278 299 293 299 6 0
50 34 156 119 6 5 30 20 53 33 24 12 56 30 72 39 16 9 35 22 43 28 23 20 150
81 166 81 9 0 26 7 39 16 13 9 42 21 64 26 23 5 49 16 58 23 8 8 39 19 67 25
29 5 60 14 70 19 9 5 64 17 122 26 58 10 114 22 125 28 34 18 206 25 535 22
236 -2 331 -7 380 -18z m-5961 -140 c15 -18 16 -6642 1 -6681 l-10 -26 -1086
2 c-1062 3 -1086 3 -1100 22 -12 17 -14 489 -14 3346 0 2574 3 3329 12 3338
19 19 2181 17 2197 -1z"/>
</g>
</svg>
